<svg xmlns="http://www.w3.org/2000/svg" viewBox="0 0 170 250" enable-background="new 0 0 170 250"><pattern width="30.3" height="30.3" patternUnits="userSpaceOnUse" viewBox="0 -30.3 30.3 30.3" overflow="visible"><path fill="none" d="M0-30.3h30.3V0H0z"/><path fill="#AD1818" d="M30.3 0H0v-30.3h30.3z"/></pattern><path fill="#fff" d="M0 0h170v250H0z"/><g fill="#631010"><path d="M39.5 164.4c0-2.6.5-3.9 2.5-5.5l3.1-2.6c2-1.6 3-1.7 5.4-1.7h6.7c1.4 0 2.9.3 2.9 2.1s-1.7 2.1-2.9 2.1h-7.4c-.8 0-1.7.4-2.4 1.1l-2.5 2.1c-.7.5-1.1 1-1.1 1.8v5.2c0 .8.5 1.3 1.1 1.8l2.5 2.1c.7.6 1.6 1.1 2.4 1.1h7.4c1.2 0 2.9.3 2.9 2.1s-1.5 2.1-2.9 2.1h-6.7c-2.5 0-3.5 0-5.4-1.7L42 174c-2-1.7-2.5-2.9-2.5-5.5v-4.1zM62 162.5c0-2.8.6-3.8 2.7-5.5 2.1-1.7 3-2.4 6-2.4H74c2.9 0 3.9.7 6 2.4s2.7 2.7 2.7 5.5v7.9c0 2.8-.7 3.8-2.9 5.6-2.2 1.8-3.1 2.2-5.7 2.2h-3.3c-2.7 0-3.5-.3-5.7-2.2-2.2-1.8-2.9-2.9-2.9-5.6v-7.9zm4.2 7.9c0 .9.3 1.4 1.5 2.5.9.8 1.6 1.1 2.9 1.1H74c1.3 0 2-.4 2.9-1.1 1.2-1.1 1.5-1.6 1.5-2.5v-7.9c0-.9-.3-1.4-1.5-2.5-.9-.8-1.6-1.1-2.9-1.1h-3.3c-1.3 0-2 .3-2.9 1.1-1.2 1.1-1.5 1.6-1.5 2.5v7.9zM97.2 154.7c1.4 0 2.6.8 4.2 2.3l.7.7v-8.8c0-1.4.3-2.9 2.1-2.9s2.1 1.4 2.1 2.9v26.4c0 1.4-.3 2.9-2.1 2.9-1.7 0-2.1-1.4-2.1-2.8v-.3l-.9.9c-1.3 1.2-2.8 2.1-4 2.1H93c-1.4 0-3-1-3.6-1.5l-1.4-1.2c-1.8-1.5-2.3-2.6-2.3-4.9v-8.4c0-2.2.6-3.4 2.3-4.9l1.4-1.2c1.3-1.1 2.3-1.5 4-1.5h3.8zM89.9 169c0 1.2 0 2.7.7 3.2l1.3 1c.5.4 1.1.8 1.6.8h3c.5 0 1.3-.4 2.1-1.1l2.4-2.1c.6-.5 1.2-1.1 1.2-1.8v-5.3c0-.8-.6-1.3-1.2-1.8l-2.4-2.1c-.8-.7-1.5-1.1-2.1-1.1h-3c-.5 0-1.1.4-1.6.8l-1.3 1c-.7.5-.7 2-.7 3.2v5.3zM117.9 178.3c-1.8 0-2.5 0-3.8-1.1l-1.8-1.6c-1.7-1.5-2.1-2.5-2.1-4.7v-8.1c0-2.2.3-3.5 2.1-5l1.5-1.3c2-1.7 2.9-1.8 4.6-1.8h3.9c2.1 0 3 .2 4.6 1.5l1.7 1.4c1.9 1.5 2.2 3.2 2.2 5.5v3.4c0 2.4-.4 3.1-2.9 3.1h-13.5v1.4c0 .4.3.9.6 1.2l1.1 1.1c.6.6 1.4.8 2.8.8h9c1.4 0 2.9.3 2.9 2.1s-1.7 2.1-2.9 2.1h-10zm-3.5-13h12.2v-2.5c0-.8 0-1.4-.5-2l-1.6-1.4c-.5-.5-1.4-.5-2-.5H119c-.8 0-1.4 0-2.1.5l-1.4 1.1c-.5.4-.9.7-.9 1.9v2.9z"/></g><g fill="#AD1818"><path d="M39.7 188h7.4c3.9 0 5.7 2.4 5.7 6.1 0 1.5-.3 2.9-1.7 4.2 1.5 1.4 1.7 2.8 1.7 4.8 0 3.5-2.3 5.5-5.7 5.5h-7.4V188zm2.7 9h4.8c1.9 0 3-.8 3-2.9 0-2.2-.6-3.5-3-3.5h-4.8v6.4zm0 8.9h4.8c1.9 0 3-.8 3-2.9 0-2.2-.6-3.5-3-3.5h-4.8v6.4zM60.7 189.4c.2-.7.5-1.3 1.3-1.3.9 0 1.2.7 1.4 1.3l5.1 17.9c.2.6-.5 1.3-1.3 1.3s-1.2-.7-1.4-1.3l-1-3.2h-5.6l-1 3.2c-.2.6-.6 1.3-1.4 1.3-.7 0-1.5-.7-1.3-1.3l5.2-17.9zm1.4 4.9l-2.1 7.2h4.1l-2-7.2zM72.5 190.6v1c0 .8-.4 1.3-1.3 1.3-1 0-1.3-.5-1.3-1.3V188h13v3.6c0 .8-.4 1.3-1.3 1.3-1 0-1.3-.5-1.3-1.3v-1h-2.6v16.6c0 .8-.4 1.3-1.3 1.3-1 0-1.3-.5-1.3-1.3v-16.6h-2.6zM88.3 190.6v1c0 .8-.4 1.3-1.3 1.3-1 0-1.3-.5-1.3-1.3V188h13v3.6c0 .8-.4 1.3-1.3 1.3-1 0-1.3-.5-1.3-1.3v-1h-2.6v16.6c0 .8-.4 1.3-1.3 1.3-1 0-1.3-.5-1.3-1.3v-16.6h-2.6zM113.8 205.9c.7 0 1.3.4 1.3 1.3 0 1-.6 1.3-1.3 1.3h-11.7v-19.2c0-.8.4-1.3 1.3-1.3 1 0 1.3.5 1.3 1.3v16.6h9.1zM129.1 205.9c.7 0 1.3.4 1.3 1.3 0 1-.6 1.3-1.3 1.3h-11.7V188h11.7c.7 0 1.3.4 1.3 1.3s-.6 1.3-1.3 1.3H120v6.3h3.9c.7 0 1.3.4 1.3 1.3s-.6 1.3-1.3 1.3H120v6.3h9.1z"/></g><path fill="#631010" d="M58.6 86.9l72.1-41V35.1L39.6 86.9z"/><path fill="#AD1818" d="M111.8 86.9l-72.2-41V35.1l91.1 51.8z"/><path fill="url(#SVGID_1_)" d="M111.8 86.9l-72.2-41V35.1l91.1 51.8z"/><path fill="#AD1818" d="M111.8 86.9l-72.2 41v10.7l91.1-51.7z"/><path fill="#631010" d="M58.6 86.9l72.1 41v10.7L39.6 86.9z"/></svg>